<?xml version="1.0" encoding="UTF-8"?>
<svg id="Layer_2" xmlns="http://www.w3.org/2000/svg" xmlns:xlink="http://www.w3.org/1999/xlink" viewBox="0 0 328.93 378.25">
  <defs>
    <style>
      .cls-1 {
        font-size: 44px;
      }

      .cls-1, .cls-2, .cls-3, .cls-4, .cls-5, .cls-6, .cls-7, .cls-8, .cls-9, .cls-10, .cls-11, .cls-12, .cls-13, .cls-14, .cls-15, .cls-16, .cls-17, .cls-18, .cls-19, .cls-20, .cls-21, .cls-22, .cls-23, .cls-24, .cls-25, .cls-26 {
        font-family: Amiri-Bold, Amiri;
        font-weight: 700;
      }

      .cls-1, .cls-2, .cls-4, .cls-5, .cls-7, .cls-27, .cls-19, .cls-20, .cls-23, .cls-24, .cls-25, .cls-26 {
        fill: #ea2694;
      }

      .cls-28, .cls-3, .cls-8, .cls-10, .cls-11, .cls-12, .cls-14, .cls-15, .cls-16, .cls-17, .cls-18, .cls-21, .cls-22 {
        fill: #362d84;
      }

      .cls-2, .cls-10 {
        font-size: 44px;
      }

      .cls-3 {
        font-size: 44px;
      }

      .cls-4 {
        font-size: 44px;
      }

      .cls-5 {
        font-size: 44px;
      }

      .cls-6, .cls-12 {
        font-size: 44px;
      }

      .cls-7 {
        font-size: 44px;
      }

      .cls-29 {
        fill: #f0339c;
      }

      .cls-30 {
        stroke-width: 3px;
      }

      .cls-30, .cls-31, .cls-32 {
        fill: none;
      }

      .cls-30, .cls-32 {
        stroke: #f0339c;
        stroke-miterlimit: 10;
      }

      .cls-8, .cls-23 {
        font-size: 44px;
      }

      .cls-9 {
        font-size: 44px;
      }

      .cls-11 {
        font-size: 44px;
      }

      .cls-32 {
        stroke-width: 2.5px;
      }

      .cls-13, .cls-18 {
        font-size: 44px;
      }

      .cls-14, .cls-19 {
        font-size: 44px;
      }

      .cls-33 {
        clip-path: url(#clippath-1);
      }

      .cls-15, .cls-26 {
        font-size: 44px;
      }

      .cls-16 {
        font-size: 44px;
      }

      .cls-17 {
        font-size: 44px;
      }

      .cls-20 {
        font-size: 44px;
      }

      .cls-34 {
        clip-path: url(#clippath-3);
      }

      .cls-21 {
        font-size: 44px;
      }

      .cls-35 {
        fill: #3e008b;
      }

      .cls-22 {
        font-size: 44px;
      }

      .cls-24 {
        font-size: 44px;
      }

      .cls-25 {
        font-size: 44px;
      }

      .cls-36 {
        fill: #f33ca4;
      }

      .cls-37 {
        clip-path: url(#clippath-2);
      }

      .cls-38 {
        clip-path: url(#clippath);
      }
    </style>
    <clipPath id="clippath">
      <rect class="cls-31" width="328.93" height="378.25"/>
    </clipPath>
    <clipPath id="clippath-1">
      <rect class="cls-31" width="328.93" height="378.25"/>
    </clipPath>
    <clipPath id="clippath-2">
      <rect class="cls-31" width="328.93" height="378.25"/>
    </clipPath>
    <clipPath id="clippath-3">
      <rect class="cls-31" width="328.93" height="378.25"/>
    </clipPath>
  </defs>
  <g id="Layer_1-2" data-name="Layer_1">
    <g id="LOGO_-_SVG">
      <g class="cls-38">
        <g class="cls-33">
          <path class="cls-28" d="M117.39,136.31c3.21,3.1,6.32,6.3,9.65,9.25,2.83,2.51,6.26,4.43,8.81,7.19,2.79,3.01,2.86,7.39.23,10.07-1.71,1.74-5.91,2.42-8.45,1.68-6.83-1.98-13.17-5.16-20.77-4.2-4.39.55-8.65-5.98-8.16-10.71,1.68-16.35,9.14-29.25,22.51-38.87,4.04-2.9,8.43-3.05,12.3-1.23,8.41,3.95,15.32,2.1,22.79-2.75,10.61-6.89,11.63-6.44,17.86,4.71,2.21,3.96,3.43,8.59,4.51,13.05.9,3.72-.17,7.12-3.38,9.82-1.76,1.49-2.92,3.69-5.3,5.03v6.16c-1.67-2.23-2.86-3.82-4.46-5.96-5.33,9.13-6.6,17.59-1.16,25.62-2.36,3.1-4.45,5.85-7.48,9.82-6.45,2.09-9.6,10.56-4.81,18.2,1.07,1.71,3.62,2.66,5.67,3.56,4.23,1.85,5.01,2.69,5.35,6.28-2.33,1.71-5.5,2.88-5.88,4.64-.37,1.72,2.1,4.06,3.79,6.91-9.63,16.51-4.01,33.27,3.48,49.91,1.9,4.21,3.72,8.46,6.18,14.08-9.18-.53-17.37-.9-25.53-1.62-.97-.08-2.11-1.98-2.58-3.25-1.42-3.84-2.56-7.79-4.95-11.56.39,4.6.79,9.21,1.24,14.43-1.9,0-3.52,0-5.13,0-10.47.03-20.62,1.1-29.35,7.83-.87.67-2.96.65-4.01.07-11.08-6.11-20.4-14.36-28.16-24.3-.8-1.02-.72-3.65.04-4.83,5.83-9.07,11.72-18.13,18.01-26.88,5.34-7.43,11.52-14.25,16.87-21.67,9.39-13.01,9.46-26.87,2.82-41.08-.41-.88-.9-1.71-2.06-3.9,3.73.92,6.4,1.33,8.89,2.25,3.12,1.14,6.06,2.76,9.12,4.05,6.67,2.81,12.31,1.65,15.15-3.03,3.03-4.99,1.75-12.72-3.12-16.81-2.66-2.23-5.77-3.91-8.64-5.9-3.54-2.45-7.03-4.96-10.55-7.45l-1.35,1.4Z"/>
          <path class="cls-27" d="M23.84,192.85c7.92,26.42,19.77,50.5,38.76,70.76,10.14,10.81,22.25,19,34.92,26.45,3.97,2.34,7.14,1.66,11.37-.88,5.35-3.21,11.88-5.6,18.05-6,10.41-.68,20.95.22,31.41.94,12.27.85,24.23-.44,36.04-3.72,3.68-1.02,7.41-1.97,11.19-2.42,1.51-.18,3.2,1.05,4.81,1.64-.79,1.33-1.25,3.31-2.42,3.89-6.21,3.1-12.48,6.11-18.94,8.63-4.94,1.92-10.19,3.05-15.29,4.54-.48.14-1.06.22-1.38.55-2.03,2-4,4.06-5.99,6.1,2.23,1.24,4.32,3.15,6.7,3.61,10.64,2.06,21.15.79,31.65-1.6,21.97-5.02,38.83-18.42,54.99-33.03,2.09-1.89,4.04-4.01,6.35-5.58.98-.66,2.99-.64,4.05-.06.79.43,1.37,2.46,1.05,3.45-.9,2.81-1.9,5.76-3.59,8.12-18.47,25.81-43.24,42.67-73.93,50.38-18.56,4.66-37.38,3.52-55.96-.47-26.22-5.64-49.82-16.64-69.48-35.26-22.9-21.69-37.08-48.02-41.8-79.29-1.04-6.89-1.71-13.83-2.55-20.75"/>
          <path class="cls-27" d="M217.74,280.89q-5.47-10.17-28.39-6.27c1.44-4.06,2.75-7.75,4.06-11.44-.62-.28-1.24-.56-1.86-.84-1.9,3.7-4.24,7.24-5.57,11.14-1.32,3.84-4.44,3.26-6.93,3.44-1.91.14-5.18-.83-5.72-2.17-4.75-11.66-9.6-23.34-13.24-35.37-2.33-7.69-.07-15.58,3.93-22.58.77-1.34,3.31-2.95,4.46-2.6,11.15,3.42,21.37.48,31.92-4.31,4.04,8.61,12.85,10.6,20.24,14.42,11.61,6.01,19.01,15.44,23.77,27.2.63,1.57.23,4.58-.9,5.67-8.23,7.92-16.77,15.52-25.76,23.71"/>
          <path class="cls-27" d="M180.17,160.64c5.63,5.22,5.17-2.63,8.54-2.95,4.52,10.76,11.17,20.73,10.59,33.71-.57,12.81-2.49,16.15-15.5,17.67-3.43.4-7.01.19-10.44-.28-3.41-.47-6.05-1.71-6.26-6.27-.2-4.46-3.33-7.54-7.75-8.81-3.27-.94-5.35-2.56-4.94-6.33.4-3.66-1.51-8.48,4.99-8.84.99-.06,2.7-1.6,2.71-2.48.09-6.15,5.08-7.11,9.13-8.07,4.37-1.04,8.5-1.47,8.92-7.35"/>
          <path class="cls-27" d="M169.41,86.21c2.18-.8,4.27-1.57,6.29-2.31,2.23,2.9,2.57,5.62-.64,6.83-3.24,1.23-6.79,5.16-10.41.43-.5-.65-.99-1.33-1.4-2.04-1.16-1.97-3.01-4.35.12-5.74,1.15-.51,3.31,1.19,4.98,1.95.43.19.75.61,1.07.87"/>
          <polygon class="cls-35" points="253.81 343.73 91.49 343.73 91.49 378.25 96.53 378.25 96.53 358.23 106.31 358.23 106.31 353.23 96.31 353.23 96.31 348.23 253.81 348.23 253.81 343.73"/>
          <polygon class="cls-35" points="111.81 351.73 115.01 351.73 115.01 373.21 253.81 373.21 253.81 378.25 111.81 378.25 111.81 351.73"/>
          <ellipse class="cls-30" cx="129.95" cy="361.21" rx="7.11" ry="7.74"/>
          <line class="cls-30" x1="158.81" y1="353.17" x2="164.33" y2="361.21"/>
          <line class="cls-30" x1="169.85" y1="353.17" x2="164.33" y2="361.21"/>
          <line class="cls-30" x1="164.33" y1="370.02" x2="164.33" y2="361.2"/>
          <path class="cls-29" d="M189.9,370.32h-3.24l-1.86-4.59-1.21-3-2.38-5.86-2.12,5.86-.97,2.67-.12.33-1.74,4.59h-3.2l2.24-5.96,4.42-12.19c.21-.58.76-.98,1.38-.99.67-.02,1.19.36,1.42.94l7.38,18.2Z"/>
          <rect class="cls-29" x="176.78" y="362.74" width="9.04" height="3"/>
          <polyline class="cls-32" points="201.65 354.25 201.65 364.99 211.49 364.99 211.49 357.61"/>
          <path class="cls-32" d="M217.49,357.25v8.64c0,.74-.34,1.45-.94,1.89-.46.34-1.09.64-1.82.64"/>
          <path class="cls-32" d="M243.65,364.99c.29-4.05,1.75-6.85,6-6.66v6.66h-21.84v-6.66c-1.71-.17-3.09.19-4.14,1.05-1.66,1.35-1.21,4.41.82,5.07,1.18.38,2.74.28,4.4.54"/>
          <path class="cls-32" d="M221.77,368.77c.76,0,6.67.34,6.16-4.14"/>
          <line class="cls-32" x1="235.79" y1="353.56" x2="236.15" y2="364.99"/>
          <path class="cls-36" d="M212.99,369.12c0,.83-.68,1.51-1.51,1.51s-1.51-.68-1.51-1.51.68-1.51,1.51-1.51,1.51.68,1.51,1.51"/>
          <path class="cls-36" d="M208.82,369.12c0,.83-.68,1.51-1.51,1.51s-1.51-.68-1.51-1.51.68-1.51,1.51-1.51,1.51.68,1.51,1.51"/>
          <path class="cls-36" d="M249.11,354.52c0,.83-.68,1.51-1.51,1.51s-1.51-.68-1.51-1.51.68-1.51,1.51-1.51,1.51.68,1.51,1.51"/>
          <path class="cls-30" d="M143.69,370.33v-16.41c1.62-.08,3.84-.08,5.44-.07,3.77.03,3.47,5.35,1.52,7.36h-6.9,6.9l3.79,9.54"/>
          <text class="cls-25" transform="translate(35.55 160.25) rotate(-81.9)"><tspan x="0" y="0">F</tspan></text>
          <text class="cls-20" transform="translate(38.83 138.74) rotate(-74.53)"><tspan x="0" y="0">l</tspan></text>
          <text class="cls-23" transform="translate(41.39 127.9) rotate(-67.45)"><tspan x="0" y="0">o</tspan></text>
          <text class="cls-24" transform="translate(49.36 108.67) rotate(-59.12)"><tspan x="0" y="0">r</tspan></text>
          <text class="cls-1" transform="translate(58 93.7) rotate(-50.89)"><tspan x="0" y="0">y</tspan></text>
        </g>
        <text class="cls-2" transform="translate(70.85 77.77) rotate(-42.71)"><tspan x="0" y="0">a</tspan></text>
        <g class="cls-37">
          <text class="cls-13" transform="translate(84.64 65.2) rotate(-36.3)"><tspan x="0" y="0"> </tspan></text>
          <text class="cls-4" transform="translate(94.1 58.27) rotate(-31.84)"><tspan x="0" y="0">.</tspan></text>
          <text class="cls-9" transform="translate(101.63 53.48) rotate(-27.34)"><tspan x="0" y="0"> </tspan></text>
          <text class="cls-11" transform="translate(110.93 47.81) rotate(-18.93)"><tspan x="0" y="0">V</tspan></text>
          <text class="cls-16" transform="translate(133.46 40.03) rotate(-10.36)"><tspan x="0" y="0">e</tspan></text>
          <text class="cls-15" transform="translate(151.2 36.83) rotate(-3.33)"><tspan x="0" y="0">t</tspan></text>
          <text class="cls-12" transform="translate(164.09 35.82) rotate(3.71)"><tspan x="0" y="0">e</tspan></text>
          <text class="cls-17" transform="translate(181.85 36.85) rotate(11.82)"><tspan x="0" y="0">r</tspan></text>
          <text class="cls-22" transform="translate(199.05 40.52) rotate(18.66)"><tspan x="0" y="0">i</tspan></text>
          <text class="cls-8" transform="translate(210.19 43.69) rotate(26.78)"><tspan x="0" y="0">n</tspan></text>
          <text class="cls-14" transform="translate(230.99 54.23) rotate(36.13)"><tspan x="0" y="0">a</tspan></text>
        </g>
        <text class="cls-21" transform="translate(245.83 64.94) rotate(44.06)"><tspan x="0" y="0">r</tspan></text>
        <g class="cls-34">
          <text class="cls-10" transform="translate(258.42 76.74) rotate(52.44)"><tspan x="0" y="0">y</tspan></text>
          <text class="cls-18" transform="translate(271.18 93.67) rotate(59.5)"><tspan x="0" y="0"> </tspan></text>
          <text class="cls-3" transform="translate(277.12 103.77) rotate(63.99)"><tspan x="0" y="0">.</tspan></text>
          <text class="cls-6" transform="translate(281.13 111.76) rotate(68.48)"><tspan x="0" y="0"> </tspan></text>
          <text class="cls-19" transform="translate(285.8 121.65) rotate(76.67)"><tspan x="0" y="0">C</tspan></text>
          <text class="cls-20" transform="translate(291.59 147.95) rotate(84.81)"><tspan x="0" y="0">l</tspan></text>
          <text class="cls-23" transform="translate(292.64 159.95) rotate(89.09)"><tspan x="0" y="0">i</tspan></text>
          <text class="cls-7" transform="translate(293.27 171.45) rotate(97.34)"><tspan x="0" y="0">n</tspan></text>
          <text class="cls-19" transform="translate(289.96 194.96) rotate(104.95)"><tspan x="0" y="0">i</tspan></text>
          <text class="cls-26" transform="translate(287.16 206.42) rotate(111.28)"><tspan x="0" y="0">c</tspan></text>
          <text class="cls-5" transform="translate(280.88 222.69) rotate(118.46)"><tspan x="0" y="0">s</tspan></text>
        </g>
      </g>
    </g>
  </g>
</svg>