<?xml version="1.0" encoding="UTF-8"?>
<svg id="Layer_2" xmlns="http://www.w3.org/2000/svg" viewBox="0 0 738.52 1022.16">
  <defs>
    <style>
      .cls-1 {
        font-family: Bropella, Bropella;
        font-size: 98.49px;
      }

      .cls-1, .cls-2 {
        fill: #47bd6c;
      }

      .cls-3 {
        fill: #358e51;
      }

      .cls-4 {
        fill: #6cca89;
      }

      .cls-5 {
        fill: #005c14;
      }

      .cls-6 {
        fill: #cdfff5;
      }
    </style>
  </defs>
  <g id="Layer_1-2" data-name="Layer_1">
    <g>
      <path class="cls-3" d="M519.86,259.53c2.94,2.06,5.93,4.06,8.82,6.19,15.07,11.13,28.74,23.6,38.21,40.05,6.79,11.79,10.74,24.53,12.4,37.99,2.62,21.17.32,42.02-4.06,62.75-.51,2.39-1.48,1.66-2.81.99-15.52-7.75-31.69-13.78-48.56-17.85-17.68-4.27-35.54-7.26-53.83-6.68-1.4.04-2.2-.37-2.83-1.63-3.89-7.86-6.23-16.19-7.3-24.86-4.01-32.5,7.35-60.31,26.33-85.74,9.98-13.38,21.79-25.04,34.34-35.98,1.26-1.1,2.21-1.05,3.61-.18,23.02,14.33,45.78,29.04,67.33,45.53,15.19,11.62,30,23.7,43.16,37.63,20.99,22.22,34.33,48.6,41.72,78.11,4.69,18.74,6.43,37.79,5.59,57.05-.84,19.12-4.1,37.9-8.67,56.46-4.25,17.31-9.89,34.17-16.04,50.88-.77,2.09-1.57,2.72-3.9,2.24-2.65-.55-5.45-.92-8.21-.4-2.1.4-2.8-.15-2.18-2.43,3.39-12.53,4.96-25.32,4.35-38.28-1.37-28.76-9.76-55.08-28.09-77.72-9.85-12.17-21.84-21.93-35.35-29.77-2-1.16-2.3-2.3-1.92-4.32,3.28-17.02,5.14-34.17,4.44-51.53-.85-20.98-5.6-40.85-17.47-58.53-9.58-14.27-22.27-25.21-37.01-33.87-3.11-1.83-6.29-3.56-9.46-5.28-.81-.44-1.59-1.08-2.63-.83.01-.37-.24-.46-.53-.51-.12-.11-.24-.22-.36-.32-.03.08-.07.15-.1.23.16.02.33.04.49.06-.01.35.19.49.5.53Z"/>
      <path class="cls-2" d="M165.05,723.09c-3.67-1.69-6.96-3.15-10.2-4.7-21.79-10.41-42.54-22.59-62.1-36.76-14.86-10.76-29.11-22.31-41.91-35.48-17.35-17.85-29.65-38.92-38.24-62.2-5.71-15.47-9.47-31.42-11.31-47.79-3.22-28.65-.58-56.64,10.21-83.59,3.11-7.77,7.09-15.1,11.52-22.19.12-.19.36-.31.75-.64-.14,3.09-.33,5.95-.39,8.81-.49,23.35,3.76,45.71,14.55,66.57,13.4,25.89,34.55,42.33,62.39,50.4,4.2,1.22,8.48,2.19,12.75,3.18,1.68.39,1.96,1.1,1.5,2.73-3.28,11.55-5.03,23.37-5.25,35.34-.44,23.97,5.73,45.94,20.64,65.07,8.49,10.89,18.75,19.88,30.09,27.67,1,.69,1.86,1.27,1.87,2.78.09,9.56,1.07,19.04,2.97,28.41.12.58.09,1.18.17,2.39Z"/>
      <path class="cls-2" d="M27.12,662.39c5.01,5.67,9.83,11.51,15.06,16.97,24.85,25.93,54.17,45.48,86.65,60.55,23.97,11.12,48.89,19.35,74.65,25.07,15.09,3.36,30.35,5.83,45.71,7.62,13.33,1.55,26.7,2.27,40.12,2.76,12.93.48,25.81.02,38.67-.88,18.88-1.31,37.5-4.6,55.93-8.84,27.38-6.29,54.06-14.77,79.7-26.29,28.72-12.91,55.52-28.9,79.01-50.11,7.22-6.53,14.26-13.22,20.8-20.43,1.1-1.22,2.01-1.67,3.38-.61.2.15.46.23.69.34q4.2,1.9,2.13,5.96c-11.05,21.5-23.78,41.89-39.97,59.96-16,17.85-34.59,32.43-55.61,43.96-20.49,11.23-42.16,19.38-64.84,24.86-15.04,3.63-30.26,6.17-45.69,7.64-15.19,1.44-30.41,1.81-45.63,1.3-19.86-.67-39.56-3-59.1-6.72-21.74-4.14-43.03-9.92-63.86-17.4-33.46-12.01-64.88-28-93.74-48.82-18.19-13.12-35.01-27.85-49.93-44.64-8.46-9.53-16.31-19.55-23.54-30.05-.38-.56-.64-1.21-.95-1.81.12-.13.24-.25.36-.37Z"/>
      <path class="cls-4" d="M561.8,411.34c1.22.82,1.68,2.21,2.18,3.42,6.23,15.07,14.74,28.96,22.31,43.34,7.03,13.35,13.06,27.13,16.68,41.83,5.76,23.42,6.15,46.65-3.59,69.24-5.47,12.7-13.97,23.18-25.66,30.62-12.83,8.17-24,18.12-33.92,29.55-.44.51-.79,1.1-1.54,1.48-3.05-41.8,5.1-82.31,12.19-122.98-1.91,5.95-3.88,11.87-5.71,17.84-3.98,12.98-7.5,26.08-10.07,39.42-2.3,11.89-4.01,23.86-5.06,35.94-.64,7.37-1.08,14.75-.98,22.15.12,8.36,1,16.63,2.81,24.8.16.73.5,1.45.03,2.48-1.42-3.7-2.68-7.24-4.12-10.7-6.21-14.93-13.46-29.4-19.99-44.19-6.09-13.79-11.53-27.81-14.08-42.74-4.43-25.99.17-49.82,17.8-70.21,7.51-8.68,16.28-16.07,25.29-23.15,5.95-4.67,11.99-9.25,17.57-14.37,6.26-5.73,10.51-12.5,10.24-21.37-.13-4.24-1.35-8.28-2.52-12.32l.12-.1ZM551.32,506.27c-.07-.15-.15-.29-.22-.44-.07.15-.19.3-.18.45,0,.15.13.29.2.44.07-.15.14-.3.21-.46Z"/>
      <path class="cls-2" d="M518.82,62.7c9,4.56,17.4,10.08,25.42,16.16,29.4,22.27,54.7,48.44,74.66,79.56,13.11,20.44,21.99,42.77,28.55,66.06,5.55,19.72,9.23,39.79,11.47,60.15,1.85,16.86,2.57,33.76,2.45,50.71,0,.48-.09.96-.19,2.02-2.11-2.87-3.84-5.28-5.64-7.63-9.86-12.91-21.26-24.34-33.44-35.03-16.64-14.61-34.52-27.58-52.94-39.82-12.82-8.52-25.91-16.63-39.29-24.25-2.82-1.61-2.85-1.63-.2-3.56,15.19-11.04,25.49-25.38,29.67-43.85,2.44-10.78,2.51-21.65,1.01-32.55-4.2-30.47-17.2-57.03-36-81.02-1.83-2.33-4.24-4.2-5.52-6.97l-.02.02Z"/>
      <path class="cls-2" d="M302.97,101.56c.88-1.63.37-3.38.28-5.04-.54-10.59.15-21.14,1.05-31.68.99-11.5,2.88-22.83,5.8-33.99,2.64-10.09,6.07-19.89,10.86-29.19.95-1.84,1.5-2.31,3.16-.56,17.77,18.73,35.63,37.38,53.43,56.09,14.23,14.97,28.59,29.82,41.8,45.72,18.16,21.85,32.71,45.74,40.91,73.15,3.93,13.14,6.39,26.51,7.07,40.26,1.52,30.76-8.01,57.72-27.39,81.37-5.87,7.16-12.72,13.34-20.22,18.73-19.53,14.03-32.09,32.99-39.77,55.49-5.81,17.01-9.29,34.49-11.01,52.35-.15,1.53-.42,3.04-.83,4.55,0-6.22-.2-12.44.05-18.65.36-9.19,1.02-18.36,2.38-27.47,3.24-21.76,10.04-42.1,23.85-59.64,5.95-7.56,13.25-13.72,20.61-19.83,18.02-14.95,29.23-34.07,34.02-56.91,5.55-26.48,2.1-51.96-9.09-76.48-7.14-15.65-17.41-29.22-28.25-42.41-10.76-13.09-21.47-26.24-32.28-39.29-5.38-6.49-10.94-12.83-16.43-19.23-.43-.5-.75-1.17-1.8-1.28,1.39,5.05,2.81,9.98,4.1,14.94,6.67,25.65,15.24,50.69,23.55,75.83,5.77,17.46,8.64,35.51,8.76,54,.14,22.72-6.9,42.91-20.44,60.98-3.3,4.39-6.54,8.84-10.68,12.52l-.09-.09c.07-1.67,1.34-2.74,2.09-4.06,6.97-12.31,12.03-25.3,13.85-39.4,1.26-9.79.7-19.56-.6-29.31-3.25-24.44-10.42-47.98-16.54-71.76-6.37-24.73-10.99-49.8-14.81-75.03-.51-3.4-1.18-6.77-1.57-10.18-.42-3.61-2.82-5.99-4.89-8.6-6.56-8.29-13.14-16.55-20.01-25.19-1.31,4-1.74,7.7-2.28,11.35-2.09,14.07-2.84,28.23-2.59,42.44.28,15.91,1.37,31.77,2.87,47.62.91,9.67,1.7,19.36,1.66,29.09-.11,26.31-9.39,48.99-26.87,68.49-2,2.23-4.27,4.17-6.56,6.36,26.7,3.16,46.64,16.8,61.93,38,13.15,18.24,19.25,42.24,18.41,55.56-6.19-24.27-19.55-44.37-38.29-61.06-18.96-16.88-41.3-25.86-67.24-28.01,9.29-3.69,16.71-8.84,22.98-15.63,11.51-12.47,17.95-27.31,20.65-43.92,2.34-14.41.33-28.61-2.07-42.79-.16-.92-.55-1.38-1.43-1.5-.17,0-.34-.02-.5-.03,1.11-.36,1.68-1.06,1.44-2.28-.62-7.53-2.08-14.97-2.15-22.55,0-.62-.54-1.23-.84-1.84Z"/>
      <path class="cls-4" d="M415.99,591.24c2.73,2.44,6.19,3.61,9.32,5.33,26.35,14.47,51.71,30.48,75.69,48.62,5.24,3.97,10.37,8.1,16.18,12.65-5.93-.1-11.02.21-16.1.87-8.95,1.17-17.7,3.37-26.57,4.98-11.53,2.09-23.12,3.65-34.85,2.82-26.44-1.88-46.91-13.98-60.99-36.5-7.6-12.15-12.68-25.55-18.45-38.6-5.99-13.54-12.37-26.87-20.74-39.15-2.26-3.32-5.04-6.24-7.67-9.35,3.32.97,6.36,2.48,9.61,3.49,9.97,3.1,20.17,3.2,30.38,2.33,11.12-.94,22.17-2.51,33.34-3.13,13.31-.74,26.46-.06,39.38,3.29,28.06,7.27,46.82,24.68,53.64,52.9,4.69,19.42,13.85,36.12,25.23,52.01.45.62,1.06,1.15,1.11,1.99l.03-.02c-3-1.3-4.83-4.01-7.18-6.08-25.62-22.51-53.9-40.66-85.9-52.78-4.1-1.55-8.15-3.24-12.23-4.83-1.03-.4-2.01-1.01-3.19-.89-.18-.13-.35-.27-.53-.4-.06.1-.13.19-.19.29.23.05.46.11.69.16Z"/>
      <path class="cls-4" d="M540.83,652.45c2.45-4.65,5.73-8.77,8.58-13.15,7.42-11.38,14.71-22.87,23.15-33.55,12.79-16.2,28.75-27.82,48.85-33.18,11.48-3.07,23.18-3.56,35.03-2.25,14.42,1.6,28.27,5.67,42.23,9.25,13.15,3.37,26.2,4.69,39.85-.48-1.52,2.04-3.26,2.79-4.65,3.91-9.14,7.39-15.41,17.08-21.58,26.82-8.75,13.82-17.45,27.65-28.64,39.7-12.55,13.51-26.86,24.09-45.46,27.67-14.27,2.75-28.28,1.43-41.43-4.37-15.62-6.89-32-10.71-48.79-14.25,5.13-4.21,10.51-7.83,16.1-11.15,16.05-9.52,33.24-16.55,50.63-23.11,12.06-4.55,24.2-8.9,36.3-13.35,1.11-.41,2.19-.86,3.15-1.81-4.34.9-8.67,1.8-13.01,2.7-19.29,4.03-38.27,9.14-56.55,16.58-14.29,5.81-28.18,12.41-40.39,22.06-1,.79-2.05,1.53-3.08,2.3-.1-.12-.21-.23-.31-.35Z"/>
      <path class="cls-4" d="M439.78,699.19c4.39-.5,8.39-2.38,12.54-3.67,19.68-6.12,39.15-12.8,57.41-22.54,4.23-2.25,8.36-4.68,12.54-7.03.08.08.16.15.24.23-1.27,2.4-3.4,4.08-5.17,6.04-12.15,13.49-24.19,27.1-37.39,39.6-12.58,11.92-25.68,23.18-40.89,31.7-13.56,7.6-27.95,12.7-43.46,14.6-20.94,2.57-41.47.46-61.85-4.63-16.18-4.04-32.09-9.05-48.23-13.2-.31-.08-.58-.3-1.19-.63,8.68-1.19,16.57-3.58,23.8-7.93,5.55-3.34,9.72-8.15,13.93-12.94,7.66-8.75,15.41-17.41,25.42-23.65,9.33-5.82,19.53-8.67,30.45-9.45,14.33-1.03,28.48.99,42.7,2.03,19.04,1.4,37.83.61,55.72-7.13.59-.26,1.2-.74,2.08-.36-.56,1.1-1.67,1.39-2.6,1.85-10.78,5.38-21.67,10.51-32.76,15.22-1.15.49-2.49.74-3.3,1.86-.4.08-.79.15-1.19.23.05.07.09.19.15.2.44.11.84.07,1.04-.42Z"/>
      <path class="cls-5" d="M304.51,128.22c.17.01.34.02.5.03-1.82,1.71-4.18,2.53-6.31,3.71-28.55,15.82-57.9,30.07-87.16,44.5-20.12,9.93-38.79,22.16-55.12,37.75-19.72,18.83-32.51,41.28-36.5,68.51-1.62,11.07-4.18,21.94-9.43,31.97-6.93,13.25-17.71,22.63-30.39,30.08-8.38,4.92-17.09,9.17-26.03,12.99-.8.34-1.85.4-2.47,1.64,3.81-.08,7.46-.41,11.04.32,1.51.31,3.05.59,4.48,1.15,3.62,1.42,5.34,4.1,5.34,8,.02,7.95-7.08,15.5-14.77,15.9-4.37.23-7.23-2.04-9.85-5.77-.43,4.55.01,8.34,2.83,11.5,2.79,3.13,6.11,3.7,9.72,1.57,1.77-1.04,3.39-2.34,5.01-3.62,1.54-1.22,2.98-2.57,4.73-4.1.38,2.68-.31,4.95-.8,7.19-2.29,10.44-6.76,19.63-15.46,26.33-1.78,1.37-3.69,2.51-5.75,3.4-.83.36-1.39.71-.54,1.64,18.95,20.69,37.31,42.06,63.2,54.72,16.87,8.25,34.67,10.49,53.24,8.42,15.23-1.69,29.71-6.26,44.32-10.5,19.48-5.66,39.43-9.41,59.17-14,3.51-.82,7.02-1.62,10.65-2.45-.45,1.11-1.49,1.06-2.22,1.32-28.07,10.2-56.11,20.46-83.52,32.37-17.29,7.51-35.51,10.75-54.42,8.99-18.84-1.75-35.52-8.92-50.35-20.56-14.31-11.23-25.47-25.3-36.01-39.93-2.61-3.63-5.09-7.35-7.67-11.01-2.6-3.7-4.7-7.77-8.55-10.52-1.73-1.24-2.87-3.19-3.97-5.04-6.54-10.99-11.66-22.58-14.43-35.11-1.65-7.47.71-11.65,8.04-14.02,19.85-6.43,37.37-17.26,54.32-29.05,15.33-10.66,23.43-25.83,26.69-43.99,2.4-13.35,4.35-26.81,8.45-39.81,6.99-22.2,20.76-39.56,38.49-54.08,19.35-15.84,41.37-27.09,64.31-36.62,23.95-9.96,48.52-18.34,72.59-27.99,4.86-1.95,9.73-3.87,14.59-5.8ZM51.17,359.44c-.16-.05-.29-.1-.44-.12-.07,0-.14.07-.21.11.11.08.22.2.34.21.09,0,.2-.13.31-.21Z"/>
      <path class="cls-5" d="M341.32,453.06c1.27,4.23.86,8.55,0,12.83-2.57,12.88-9.47,23.45-17.82,33.24-9.88,11.57-21.59,21.2-32.98,31.19-27.1,23.79-51.2,50.22-70.24,81.01-16.85,27.25-27.66,56.67-32.2,88.43-2.51,17.58-3.51,35.26-4,52.99-.02.66,0,1.32,0,2.1-1.08-.16-1.23-.91-1.57-1.43-7.27-11.1-11.01-23.43-12.38-36.5-4.23-40.37,5.91-77.2,27.64-111.11,15.78-24.64,35.75-45.57,57.65-64.77,15.88-13.93,33.34-25.77,50.21-38.4,9.11-6.82,17.77-14.18,24.69-23.33,4.92-6.5,8.93-13.47,10.42-21.62.28-1.52.39-3.06.57-4.6Z"/>
      <path class="cls-2" d="M124.54,561.37c7.55,1.71,14.96,3.92,22.29,6.4,15.21,5.15,29.74,11.75,43.11,20.73,1.5,1.01,2.94,2.1,4.44,3.11,1.05.71,1.27,1.33.38,2.48-15.7,20.24-25.23,43.24-30.16,68.24-1.11,5.64-1.93,11.35-2.19,17.11-.09,2.01-.72,1.65-1.92.8-12.98-9.28-23.84-20.49-31.63-34.52-9.21-16.59-12.38-34.51-11.33-53.25.55-9.87,2.2-19.62,5-29.14.3-1.02.3-2.4,2.02-1.96Z"/>
      <path class="cls-5" d="M451.22,293.7c-1.88,2.55-3.89,5.03-5.62,7.68-8.34,12.72-8.63,26.09-2.99,39.88,1.5,3.66,3.1,7.29,5.17,10.65,5.01,8.13,9.5,16.5,12.77,25.52,1.35,3.72,3.51,7.07,5.72,10.35.76,1.13,1.51,2.05,3.11,1.2,1.32-.7,2.49-.22,3.42.9,11.36,13.6,22.88,27.11,30.97,43.05,4.63,9.13,7.9,18.67,7.87,29.09,0,.77-.04,1.55-.08,2.32-.01.22-.11.43-.18.7-6.48-19.94-20.76-34.36-34.28-49.28-11.5-12.69-23.37-25.05-33.09-39.23-6.35-9.27-11.71-19.03-13.97-30.19-3.19-15.76.83-29.8,10.42-42.42,3.02-3.98,6.38-7.67,10.43-10.67.11.15.22.3.33.45Z"/>
      <path class="cls-5" d="M302.97,101.56c.29.61.83,1.22.84,1.84.07,7.58,1.53,15.03,2.15,22.55-8.18-15.04-17.96-29.07-27.4-43.31-2.78-4.2-5.69-8.32-8.78-12.83-4.2,8.74-7.16,17.37-9.75,26.13-4.05,13.69-6.96,27.63-8.88,41.78-.24,1.74-.92,2.6-2.68,3.15-3.99,1.26-7.87,2.86-12.03,4.41.9-7.81,2.31-15.36,3.94-22.88,3.65-16.85,8.73-33.21,16.59-48.62,3.14-6.15,6.94-11.86,11.23-17.27.94-1.19,1.51-1.29,2.46.01,10.81,14.98,22.06,29.65,32.32,45.03Z"/>
      <path class="cls-5" d="M223.41,288.37c-8.12,5.72-16.42,8.85-25.16,10.91-6.18,1.45-12.4,2.77-18.63,4.03-9.87,1.99-17.42,7.41-23.22,15.48-1.85,2.57-3.65,5.17-5.91,8.39.03-4.57.4-8.43,1-12.26,1.27-8.07,3.67-15.76,8.45-22.47,5.69-7.99,13.06-12.87,23.39-11.75,2.33.25,4.57.9,6.64,1.94,7.88,3.96,16.39,4.89,25.01,5.33,2.56.13,5.13.26,8.43.42Z"/>
      <path class="cls-5" d="M228.6,554.23c-5.54-22.38-13.09-43.68-22.41-64.47,2.48.44,4.22,1.88,5.95,3.29,12.05,9.78,21.58,21.62,28.73,35.38,1.46,2.82,2.75,5.72,4.06,8.62.32.71.83,1.4-.2,2.23-5.62,4.52-10.83,9.51-16.13,14.95Z"/>
      <path class="cls-2" d="M536.36,663.83c-1.88,16.4-8.81,30.21-21.12,41.29-.98.88-1.56.86-2.13-.31-.15-.31-.35-.61-.6-.84-1.83-1.75-1.51-2.85.48-4.59,10.02-8.72,16.97-19.35,19.04-32.75.16-1.02.33-2.07.23-3.08-.2-2.01.85-2.16,2.47-2.17,1.99,0,1.69,1.21,1.63,2.43Z"/>
      <path class="cls-2" d="M26.76,662.76c-.49-.26-.81-.64-.91-1.19.11-.1.23-.2.35-.29.5.21.79.6.92,1.11-.12.12-.24.25-.36.37Z"/>
      <path class="cls-2" d="M25.85,661.57c-.44-.37-.97-.68-.77-1.44.77.03.85.68,1.12,1.15-.12.09-.23.19-.35.29Z"/>
      <path class="cls-2" d="M541.14,652.8c-.29.24-.58.48-.87.72-.33-.63.22-.79.56-1.07.1.12.2.23.31.35Z"/>
      <path class="cls-2" d="M518.84,62.68c-.22-.05-.44-.09-.67-.14.36-.5.46-.02.65.16,0,0,.02-.02.02-.02Z"/>
      <path class="cls-2" d="M561.68,411.44c-.42-.24-.51-.62-.48-1.06l-.03.03c.59.06.61.5.63.94,0,0-.12.1-.12.1Z"/>
      <path class="cls-2" d="M524.5,655.8c.13.17.26.35.4.52-.07.04-.14.08-.21.12-.05-.22-.11-.44-.16-.66,0,0-.03.02-.03.02Z"/>
      <path class="cls-2" d="M481.13,679.06c.18-.14.35-.28.53-.41,0,0,.1.12.15.18-.24.07-.48.13-.71.2l.03.03Z"/>
      <path class="cls-2" d="M481.11,679.03c-.19.47-.59.55-1.03.52v.02c.15-.61.61-.54,1.06-.51,0,0-.03-.03-.03-.03Z"/>
      <path class="cls-2" d="M480.07,679.55c-.12.33-.35.49-.7.4-.05-.01-.08-.13-.12-.19.28-.06.56-.13.84-.19,0,0-.01-.02-.01-.02Z"/>
      <path class="cls-2" d="M366.43,285.9l-.26.33c-.25-.27-.09-.37.18-.42,0,0,.09.09.09.09Z"/>
      <path class="cls-5" d="M451.43,292.84c.2-.06.55-.21.56-.18.15.29-.03.43-.3.49-.09-.1-.17-.2-.26-.3Z"/>
      <path class="cls-5" d="M451.69,293.14c-.16.19-.31.37-.47.56-.11-.15-.22-.3-.33-.45.18-.14.36-.28.54-.42.09.1.17.2.26.3Z"/>
      <path class="cls-2" d="M561.2,410.38c-.07-.04-.14-.09-.21-.13.06.05.12.1.18.16,0,0,.03-.03.03-.03Z"/>
      <polygon class="cls-2" points="330.94 542.37 331.13 542.32 331.11 542.48 330.94 542.37"/>
      <path class="cls-2" d="M522.93,665.58c.07-.12.13-.23.2-.35.35.3,0,.3-.16.39l-.04-.04Z"/>
      <path class="cls-2" d="M522.97,665.62c-.15.19-.3.38-.46.57-.08-.08-.16-.15-.24-.23.22-.13.44-.25.66-.38,0,0,.04.04.04.04Z"/>
      <path class="cls-6" d="M519.36,259c-.16-.02-.33-.04-.49-.06.03-.08.07-.15.1-.23.12.11.24.22.36.32,0,0,.04-.03.04-.03Z"/>
      <path class="cls-6" d="M519.86,259.53c-.31-.05-.51-.19-.5-.53,0,0-.04.03-.04.03.29.05.54.14.53.51,0,0,0,0,0,0Z"/>
      <path class="cls-6" d="M551.32,506.27c-.07.16-.14.31-.21.46-.07-.15-.19-.29-.2-.44,0-.15.12-.3.18-.45.07.14.15.29.22.44Z"/>
      <path class="cls-6" d="M415.99,591.24c-.23-.05-.46-.11-.69-.16.06-.1.13-.19.19-.29.18.13.35.27.53.4,0,0-.04.04-.04.04Z"/>
      <path class="cls-6" d="M439.78,699.19c-.21.49-.61.52-1.04.42-.06-.01-.1-.13-.15-.2.4-.08.79-.15,1.19-.23,0,0,0,.01,0,.01Z"/>
      <path class="cls-6" d="M51.17,359.44c-.11.08-.22.21-.31.21-.12,0-.23-.13-.34-.21.07-.04.14-.12.21-.11.14.01.28.07.44.12Z"/>
    </g>
    <text class="cls-1" transform="translate(5.41 957.55)"><tspan x="0" y="0">Saqr Al Shamal</tspan></text>
  </g>
</svg>